<?xml version="1.0" encoding="UTF-8" standalone="no"?>
<svg
   xmlns="http://www.w3.org/2000/svg"
   version="1.1"
   viewBox="0 0 20 20"
   height="20"
   width="20">
   <!-- text: IP in Source Code Pro -->
    <g
       aria-label="IP">
      <path
         class="jp-icon3 jp-icon-selectable"
         fill="#616161"
         d="m 1.619125,15.248 v -1.136 h 2.608 V 5.8720001 h -2.608 v -1.12 h 6.56 v 1.12 h -2.608 V 14.112 h 2.608 v 1.136 z" />
      <path
         class="jp-icon3 jp-icon-selectable"
         fill="#616161"
         d="M 11.324875,15.248 V 4.7520001 h 3.168 q 1.168,0 2.032,0.288 0.88,0.288 1.36,0.976 0.496,0.672 0.496,1.824 0,1.104 -0.496,1.824 -0.48,0.7199999 -1.36,1.0719999 -0.88,0.352 -2.032,0.352 h -1.84 v 4.16 z m 1.328,-5.248 h 1.68 q 1.376,0 2.032,-0.5119999 0.672,-0.528 0.672,-1.648 0,-1.136 -0.672,-1.568 -0.672,-0.448 -2.032,-0.448 h -1.68 z" />
  </g>
</svg>
